PathFileType	4	(X/Y/Z)	RBDS028static.trc
DataRate	CameraRate	NumFrames	NumMarkers	Units	OrigDataRate	OrigDataStartFrame	OrigNumFrames
150.000000	150.000000	4	48	mm	150.000000	18	150
Frame#	Time	L.Ankle			L.Ankle.Medial			L.ASIS			L.GTR			L.Heel.Bottom			L.Heel.Lateral			L.Heel.Top			L.HF			L.Iliac.Crest			L.Knee			L.Knee.Medial			L.MT1			L.MT2			L.MT5			L.PSIS			L.Shank.Bottom.Lateral			L.Shank.Bottom.Medial			L.Shank.Top.Lateral			L.Shank.Top.Medial			L.Thigh.Bottom.Lateral			L.Thigh.Bottom.Medial			L.Thigh.Top.Lateral			L.Thigh.Top.Medial			L.TT			R.Ankle			R.Ankle.Medial			R.ASIS			R.GTR			R.Heel.Bottom			R.Heel.Lateral			R.Heel.Top			R.HF			R.Iliac.Crest			R.Knee			R.Knee.Medial			R.MT1			R.MT2			R.MT5			R.PSIS			R.Shank.Bottom.Lateral			R.Shank.Bottom.Medial			R.Shank.Top.Lateral			R.Shank.Top.Medial			R.Thigh.Bottom.Lateral			R.Thigh.Bottom.Medial			R.Thigh.Top.Lateral			R.Thigh.Top.Medial			R.TT			
		X1	Y1	Z1	X2	Y2	Z2	X3	Y3	Z3	X4	Y4	Z4	X5	Y5	Z5	X6	Y6	Z6	X7	Y7	Z7	X8	Y8	Z8	X9	Y9	Z9	X10	Y10	Z10	X11	Y11	Z11	X12	Y12	Z12	X13	Y13	Z13	X14	Y14	Z14	X15	Y15	Z15	X16	Y16	Z16	X17	Y17	Z17	X18	Y18	Z18	X19	Y19	Z19	X20	Y20	Z20	X21	Y21	Z21	X22	Y22	Z22	X23	Y23	Z23	X24	Y24	Z24	X25	Y25	Z25	X26	Y26	Z26	X27	Y27	Z27	X28	Y28	Z28	X29	Y29	Z29	X30	Y30	Z30	X31	Y31	Z31	X32	Y32	Z32	X33	Y33	Z33	X34	Y34	Z34	X35	Y35	Z35	X36	Y36	Z36	X37	Y37	Z37	X38	Y38	Z38	X39	Y39	Z39	X40	Y40	Z40	X41	Y41	Z41	X42	Y42	Z42	X43	Y43	Z43	X44	Y44	Z44	X45	Y45	Z45	X46	Y46	Z46	X47	Y47	Z47	X48	Y48	Z48	

19	0.12	712.1594848632813	92.94553375244141	1051.67431640625	730.5360107421875	106.282600402832	1133.790161132813	837.1839599609375	893.38037109375	1108.127319335938	790.5281372070313	805.57275390625	1061.315673828125	638.5240478515625	39.12773895263672	1087.67529296875	668.50830078125	56.49559020996094	1044.879760742188	649.237548828125	83.63475036621094	1088.647827148438	744.911865234375	413.0058898925781	1051.805053710938	773.5894165039063	944.3792114257813	1078.558227539063	750.0977172851563	475.8528442382813	1059.104858398438	732.8052978515625	453.2087707519531	1171.43115234375	856.036865234375	53.50589752197266	1132.033813476563	858.2095336914063	65.72434997558594	1084.642333984375	823.4447631835938	46.63798904418945	1021.419738769531	681.6768188476563	924.2620849609375	1177.849487304688	714.5631103515625	171.6257171630859	1043.984985351563	673.999267578125	170.2603912353516	1075.28662109375	706.1542358398438	251.2336578369141	1031.946044921875	667.7298583984375	254.4620208740234	1068.44384765625	773.17431640625	574.606201171875	1040.10302734375	706.1048583984375	576.9151000976563	1068.504150390625	775.34326171875	684.90673828125	1040.036010742188	713.3433227539063	685.7657470703125	1071.897705078125	790.6688232421875	393.1566772460938	1103.893310546875	707.2362670898438	99.19061279296875	1406.733276367188	726.3715209960938	107.7341766357422	1324.661010742188	830.9566040039063	901.2759399414063	1347.832763671875	780.6184692382813	815.0986938476563	1393.108520507813	636.6871948242188	38.34554672241211	1369.060180664063	666.694091796875	59.4103889465332	1410.732421875	646.8258056640625	83.57625579833984	1367.48828125	735.3352661132813	419.9627990722656	1403.512817382813	778.8157958984375	962.3604736328125	1366.991088867188	738.8079223632813	482.2795715332031	1396.580078125	733.8916015625	458.7396240234375	1280.22900390625	853.7300415039063	53.82714080810547	1331.632690429688	858.0282592773438	64.19784545898438	1379.964111328125	819.7295532226563	46.64291000366211	1441.607421875	680.9902954101563	927.451904296875	1270.67626953125	705.2891235351563	178.3188934326172	1414.533325195313	666.608642578125	178.3395690917969	1374.244018554688	695.0216674804688	258.5699157714844	1421.964965820313	659.4158935546875	257.9158325195313	1381.682739257813	748.5127563476563	570.2077026367188	1410.866333007813	688.960693359375	572.9871215820313	1370.15673828125	752.1522827148438	680.6959838867188	1410.187377929688	695.5150756835938	682.61572265625	1371.764770507813	780.2324829101563	395.6669921875	1358.35693359375	
20	0.1266666666666667	712.1578369140625	92.94496917724609	1051.668579101563	730.5346069335938	106.2873306274414	1133.783325195313	837.1334838867188	893.3880004882813	1108.125122070313	790.4895629882813	805.57275390625	1061.308471679688	638.5171508789063	39.13664245605469	1087.680541992188	668.4464721679688	56.52521896362305	1044.865966796875	649.2379760742188	83.62617492675781	1088.659790039063	744.8897094726563	413.0013122558594	1051.7919921875	773.5291137695313	944.3853149414063	1078.557373046875	750.0875244140625	475.8453674316406	1059.1005859375	732.7916259765625	453.1918029785156	1171.4375	856.0322265625	53.49615859985352	1132.04052734375	858.218505859375	65.72475433349609	1084.64501953125	823.4559936523438	46.64685440063477	1021.424377441406	681.6278076171875	924.2579956054688	1177.852294921875	714.559814453125	171.6235504150391	1043.977783203125	673.9937133789063	170.2539978027344	1075.283569335938	706.14892578125	251.23779296875	1031.951538085938	667.717529296875	254.4642028808594	1068.43798828125	773.148193359375	574.613037109375	1040.10546875	706.0911254882813	576.9111328125	1068.495483398438	775.3285522460938	684.90625	1040.04736328125	713.3042602539063	685.7622680664063	1071.89990234375	790.6569213867188	393.1575622558594	1103.89599609375	707.2249755859375	99.18773651123047	1406.7490234375	726.3817749023438	107.7430648803711	1324.670654296875	830.9078979492188	901.2758178710938	1347.839965820313	780.5798950195313	815.088623046875	1393.114990234375	636.6881103515625	38.34342193603516	1369.056762695313	666.6983642578125	59.4064826965332	1410.72412109375	646.825927734375	83.57969665527344	1367.4912109375	735.3223876953125	419.9659118652344	1403.520874023438	778.74658203125	962.3644409179688	1366.979858398438	738.7830810546875	482.2662353515625	1396.577270507813	733.8812866210938	458.7337341308594	1280.2275390625	853.7262573242188	53.81660461425781	1331.633544921875	858.0328369140625	64.19570922851563	1379.950561523438	819.728515625	46.63724517822266	1441.615356445313	680.9302978515625	927.4400024414063	1270.677124023438	705.2848510742188	178.3161773681641	1414.531616210938	666.6009521484375	178.3376159667969	1374.236083984375	695.0209350585938	258.5645751953125	1421.966064453125	659.3970947265625	257.9076232910156	1381.679809570313	748.4776000976563	570.2034912109375	1410.865966796875	688.9302368164063	572.9891967773438	1370.143310546875	752.1183471679688	680.6931762695313	1410.181396484375	695.4783325195313	682.6138305664063	1371.753784179688	780.1994018554688	395.656982421875	1358.361572265625	
21	0.1333333333333333	712.1478881835938	92.94229888916016	1051.66455078125	730.5340576171875	106.2843780517578	1133.785400390625	837.0802612304688	893.3980712890625	1108.124633789063	790.448974609375	805.5677490234375	1061.319702148438	638.513916015625	39.12625885009766	1087.682861328125	668.5	56.49462127685547	1044.871704101563	649.2332763671875	83.62796020507813	1088.653198242188	744.883056640625	413.0046691894531	1051.803100585938	773.4945068359375	944.389892578125	1078.559814453125	750.0564575195313	475.8494873046875	1059.110229492188	732.7691040039063	453.1925048828125	1171.444091796875	856.0394897460938	53.50376892089844	1132.028930664063	858.2167358398438	65.72190093994141	1084.644165039063	823.4495849609375	46.64358520507813	1021.41748046875	681.5738525390625	924.2527465820313	1177.850463867188	714.5559692382813	171.6242828369141	1043.975219726563	673.98583984375	170.2487640380859	1075.28076171875	706.1431884765625	251.2311553955078	1031.950073242188	667.7069702148438	254.4649963378906	1068.443115234375	773.1260375976563	574.6104125976563	1040.100219726563	706.070556640625	576.9100952148438	1068.494995117188	775.2815551757813	684.9068603515625	1040.0390625	713.280517578125	685.7540283203125	1071.903198242188	790.6332397460938	393.1511840820313	1103.885986328125	707.2384643554688	99.17823028564453	1406.742431640625	726.3557739257813	107.7545166015625	1324.591064453125	830.8619995117188	901.283935546875	1347.8330078125	780.5343017578125	815.092529296875	1393.117065429688	636.6856689453125	38.33740234375	1369.058227539063	666.690673828125	59.40559768676758	1410.742065429688	646.820556640625	83.57526397705078	1367.491333007813	735.30126953125	419.966796875	1403.5146484375	778.6934204101563	962.3759765625	1366.988891601563	738.7659912109375	482.2867736816406	1396.572509765625	733.864501953125	458.7311706542969	1280.222290039063	853.7267456054688	53.82131958007813	1331.629638671875	858.0327758789063	64.20155334472656	1379.954345703125	819.7326049804688	46.64840698242188	1441.607421875	680.8833618164063	927.438720703125	1270.681884765625	705.2750244140625	178.31298828125	1414.533447265625	666.5918579101563	178.3339080810547	1374.230712890625	695.0036010742188	258.5595092773438	1421.962036132813	659.386962890625	257.9071044921875	1381.683227539063	748.4459228515625	570.200927734375	1410.866577148438	688.9020385742188	572.9850463867188	1370.149780273438	752.0850830078125	680.6923217773438	1410.181884765625	694.8237915039063	682.696044921875	1371.798217773438	780.1723022460938	395.6474304199219	1358.35693359375	
22	0.14	712.1507568359375	92.94790649414063	1051.669189453125	730.5283203125	106.2824554443359	1133.791625976563	837.033447265625	893.3959350585938	1108.1123046875	790.4083251953125	805.5714111328125	1061.311157226563	638.5177612304688	39.12119674682617	1087.6845703125	668.4857177734375	56.49348449707031	1044.874755859375	649.2335815429688	83.62390899658203	1088.64990234375	744.8685913085938	413.0033569335938	1051.798217773438	773.4432983398438	944.3970947265625	1078.55615234375	750.0316162109375	475.8483276367188	1059.1064453125	732.7659912109375	453.16552734375	1171.438232421875	856.0370483398438	53.50192260742188	1132.033325195313	858.2113037109375	65.72528839111328	1084.63720703125	823.4501953125	46.64344787597656	1021.415161132813	681.5145874023438	924.2452392578125	1177.847778320313	714.5446166992188	171.6152648925781	1043.986206054688	673.9776611328125	170.2413330078125	1075.2783203125	706.13525390625	251.2272186279297	1031.95263671875	667.6991577148438	254.4566497802734	1068.43505859375	773.1058959960938	574.616455078125	1040.093872070313	706.0451049804688	576.9036254882813	1068.48779296875	775.247802734375	684.9088745117188	1040.042114257813	713.2394409179688	685.7499389648438	1071.906494140625	790.63037109375	393.15673828125	1103.887084960938	707.2184448242188	99.17504119873047	1406.74560546875	726.3456420898438	107.7512359619141	1324.58544921875	830.7999877929688	901.2890014648438	1347.844360351563	780.4861450195313	815.09375	1393.114624023438	636.6903076171875	38.33871078491211	1369.055908203125	666.7001342773438	59.40374374389648	1410.737670898438	646.816650390625	83.57516479492188	1367.488891601563	735.2877197265625	419.9593811035156	1403.511108398438	778.6301879882813	962.3726806640625	1366.9736328125	738.7332763671875	482.2827758789063	1396.58056640625	733.8512573242188	458.7326049804688	1280.216430664063	853.7312622070313	53.82294845581055	1331.627563476563	858.0267333984375	64.20042419433594	1379.946411132813	819.7301025390625	46.64104461669922	1441.613647460938	680.8259887695313	927.430419921875	1270.673583984375	705.2673950195313	178.3126525878906	1414.532348632813	666.5838012695313	178.3297729492188	1374.2294921875	694.9880981445313	258.5571899414063	1421.968139648438	659.36328125	257.9082336425781	1381.677734375	748.42138671875	570.1983032226563	1410.8662109375	688.8689575195313	572.9751586914063	1370.1435546875	752.0421142578125	680.6917114257813	1410.179077148438	694.7958984375	682.6973876953125	1371.788940429688	780.1504516601563	395.6465454101563	1358.361938476563	
